<?xml version="1.0" encoding="UTF-8"?>
<svg xmlns="http://www.w3.org/2000/svg" width="345" height="101" viewBox="0 0 345 101" fill="none">
  <path fill-rule="evenodd" clip-rule="evenodd" d="M32.709 7.98365C50.7739 7.98365 65.4187 22.6278 65.4187 40.6927C65.4187 58.7579 50.7739 73.4023 32.709 73.4023C14.6445 73.4023 0 58.7579 0 40.6927C0 22.6278 14.6445 7.98365 32.709 7.98365Z" fill="#2D3591"></path>
  <path fill-rule="evenodd" clip-rule="evenodd" d="M28.7292 21.9283L7.58154 47.0884L28.8909 2.59621C34.6287 15.2495 51.3938 81.662 75.511 67.0679C52.0051 83.1973 34.9416 38.737 28.7292 21.9283Z" fill="#51AEE5"></path>
  <path d="M28.7289 20.2448C28.8241 20.2448 28.9216 20.2531 29.0178 20.2698C29.6085 20.3727 30.0993 20.7827 30.3075 21.345C33.9633 31.2357 44.7447 60.4044 59.1977 67.3515C46.5141 57.8478 37.1891 30.9633 31.3624 14.1678C30.3704 11.3087 29.5012 8.80213 28.7529 6.7809L14.8315 35.8468L27.4408 20.8457C27.7632 20.4616 28.2372 20.2448 28.7289 20.2448ZM65.4263 72.2183C63.7145 72.2183 62.004 71.948 60.2995 71.4063C45.717 66.7722 35.0983 43.5384 28.1622 25.2179L8.86933 48.171C8.327 48.8219 7.38346 48.9646 6.66932 48.5026C5.95739 48.0432 5.6973 47.1256 6.06403 46.3618L27.3734 1.86955C27.6531 1.28546 28.2438 0.91336 28.8909 0.91336C28.8966 0.91336 28.9029 0.913364 28.9086 0.913997C29.5623 0.920641 30.154 1.30572 30.4233 1.9012C31.4706 4.21037 32.8261 8.11774 34.5429 13.0651C40.4643 30.1365 51.4884 61.9137 65.1152 66.8323C68.293 67.9777 71.408 67.5841 74.6396 65.6284C75.4208 65.1553 76.433 65.3914 76.9247 66.1565C77.4192 66.9222 77.2136 67.9407 76.4627 68.4564C72.8116 70.9608 69.1172 72.2183 65.4263 72.2183Z" fill="white"></path>
  <path fill-rule="evenodd" clip-rule="evenodd" d="M28.7292 21.9283L7.58154 47.0884L28.8909 2.59621C34.6287 15.2495 51.3938 81.662 75.511 67.0679C52.0051 83.1973 34.9416 38.737 28.7292 21.9283Z" fill="#EB1D27"></path>
  <path fill-rule="evenodd" clip-rule="evenodd" d="M169.851 61.7384L167.193 70.8773H93.4765C93.4765 70.8773 86.3452 71.2858 85.6026 64.1928V57.546V13.2256C85.6026 13.2256 85.2315 5.8899 93.9578 5.85288H334.672C334.672 5.85288 342.396 6.48381 341.69 14.06V62.0684C341.69 62.0684 343.213 70.6543 333.371 70.989H264.466L262.294 63.8384L261.168 60.1323C260.741 58.7271 260.533 57.4915 259.252 56.5667C258.187 55.7975 256.382 55.1317 253.325 55.1317H230.401H177.991C177.991 55.1317 174.428 54.74 172.095 56.8328C170.628 58.149 170.37 59.9551 169.851 61.7384Z" fill="#DB1E28"></path>
  <path fill-rule="evenodd" clip-rule="evenodd" d="M166.283 73.9602L166.546 72.9914L92.4745 72.997C92.4745 72.997 84.5275 73.2733 83.7849 64.9548V26.9446V12.9469C83.7849 12.9469 82.9676 3.82952 92.9573 3.79218H239.3H335.2C335.2 3.79218 344.283 3.56563 343.613 13.6914V64.2866C343.613 64.2866 343.92 73.1992 334.079 72.9018H265.111L265.412 73.9229H313.989H333.225C333.225 73.9229 337.615 74.3272 340.609 72.2766C340.609 72.2766 344.291 70.6366 344.552 64.435V37.8153V12.0366C344.552 12.0366 344.811 8.69403 341.952 5.57484C341.952 5.57484 339.888 3.21568 335.565 2.88281H308.321H233.79H115.107H92.2147C92.2147 2.88281 88.382 2.73537 85.4628 5.48815C85.4628 5.48815 82.7078 7.87737 82.8192 12.8536V25.8511V62.0135V65.0529C82.8192 65.0529 83.0049 72.5677 90.8035 73.7561C90.8035 73.7561 91.5553 73.9229 92.4774 73.9602H111.748H166.283Z" fill="#100F0D"></path>
  <path d="M92.1341 3.05301C91.57 3.05301 88.1819 3.159 85.58 5.61277C85.5477 5.64093 82.8823 8.02035 82.9908 12.8494V65.0532C82.9984 65.3497 83.2673 72.4344 90.8293 73.5858C90.8489 73.5896 91.5896 73.7526 92.4844 73.789H166.152L166.322 73.1628L92.4743 73.1682C92.3866 73.1543 84.3621 73.3536 83.6145 64.9703L83.6138 12.9472C83.5999 12.8039 83.2936 9.0392 85.78 6.31015C87.3946 4.53761 89.8098 3.63267 92.9562 3.62096H335.2C335.34 3.61305 339.039 3.55421 341.567 6.18928C343.252 7.94505 343.998 10.4732 343.784 13.7034V64.2859C343.79 64.434 343.885 68.0847 341.32 70.6603C339.632 72.3556 337.203 73.1612 334.074 73.073H265.341L265.54 73.7517H333.225C333.285 73.7532 337.605 74.125 340.512 72.1354C340.574 72.1038 344.128 70.4388 344.38 64.4276V12.0369C344.383 11.991 344.597 8.71456 341.826 5.6903C341.803 5.66499 339.747 3.37669 335.551 3.05364H92.2148C92.2107 3.05364 92.1838 3.05301 92.1341 3.05301ZM166.414 74.1313H92.4775C91.5437 74.0943 90.7976 73.9298 90.7666 73.9228C82.9282 72.7296 82.6497 65.1336 82.6484 65.057V12.8535C82.5358 7.85834 85.2354 5.45869 85.35 5.3587C88.2834 2.592 92.1854 2.7097 92.2208 2.71128H335.565C339.921 3.04605 341.995 5.36344 342.081 5.46185C344.954 8.59749 344.733 11.9106 344.723 12.0498V64.4349C344.461 70.678 340.833 72.3642 340.678 72.4332C337.696 74.48 333.392 74.1095 333.209 74.0934L265.284 74.0943L264.882 72.7306H334.079C337.11 72.8296 339.456 72.0449 341.075 70.4208C343.535 67.9531 343.444 64.328 343.442 64.2922V13.6917C343.65 10.5523 342.936 8.11243 341.322 6.4288C338.906 3.90827 335.252 3.95953 335.204 3.96332H92.9571C89.912 3.97503 87.5829 4.84137 86.0356 6.53891C83.6508 9.15469 83.9524 12.8944 83.9552 12.9317L83.9562 64.9548C84.6735 72.9932 92.1604 72.8366 92.468 72.8258L166.77 72.8205L166.414 74.1313Z" fill="#100F0D"></path>
  <path d="M323.443 50.948V36.1716L331.927 13.0799H324.285L322.038 21.9568C321.364 24.6536 320.746 27.407 320.297 30.1598H320.184C319.622 27.3507 318.892 24.5412 318.162 22.1258L315.633 13.0799H307.758L316.083 36.4522V50.948H323.443ZM292.823 18.867C293.216 18.6984 293.946 18.6421 294.621 18.6421C297.879 18.7547 299.172 21.0019 299.172 24.2606C299.172 27.5753 297.374 30.1598 294.171 30.1598H292.823V18.867ZM285.463 50.948H292.823V35.8343H293.946C296.362 35.8343 297.542 37.1828 298.216 41.8464C298.778 46.0601 299.621 49.8807 300.126 50.948H307.824C307.15 49.5431 306.139 44.8802 305.408 40.6665C304.678 36.5649 303.385 34.2051 300.801 33.1375V33.0255C304.621 31.2837 306.644 27.6313 306.644 23.5863C306.644 20.3276 305.914 17.7992 303.61 15.7206C301.194 13.5292 297.542 12.9112 293.497 12.9112C290.688 12.9112 287.766 13.1919 285.463 13.6418V50.948ZM267.483 50.948H274.844V19.8783H281.586V13.0799H260.798V19.8783H267.483V50.948ZM248.718 38.0821H259.899V32.8005H248.718V38.0821ZM227.762 50.948V42.4644C227.762 34.8234 227.481 28.9799 227.256 25.1592H227.368C228.267 28.5306 229.953 33.3622 231.245 36.5649L237.032 50.948H243.774V13.0799H237.313V21.4512C237.313 28.4182 237.819 34.992 238.043 38.9807H237.931C236.864 35.722 235.066 30.834 233.886 27.9126L228.043 13.0799H221.3V50.948H227.762ZM202.31 36.5649L203.715 28.6429C204.108 26.4514 204.67 22.5747 205.063 20.0469H205.232C205.569 22.5191 206.075 26.3391 206.468 28.6429L207.704 36.5649H202.31ZM208.378 42.2957L210.007 50.948H217.143L209.783 13.0799H200.962L192.759 50.948H199.895L201.58 42.2957H208.378ZM183.601 50.948H190.175L187.871 13.0799H180.117L177.084 26.789C176.129 31.5643 175.286 35.8343 174.724 40.0486H174.555C173.881 35.7783 172.926 31.5643 171.915 26.789L168.881 13.0799H161.071L158.374 50.948H164.667L165.341 37.8008C165.51 34.0364 165.791 29.2608 165.903 25.1592H166.016C166.633 29.2608 167.645 33.9804 168.375 37.0142L171.521 50.33H176.691L180.005 36.7899C180.736 33.8684 181.747 29.2048 182.421 25.1592H182.534C182.477 29.2048 182.702 34.0928 182.927 37.6885L183.601 50.948ZM147.812 50.948H154.385L152.082 13.0799H144.328L141.295 26.789C140.34 31.5643 139.497 35.8343 138.935 40.0486H138.766C138.092 35.7783 137.137 31.5643 136.126 26.789L133.092 13.0799H125.282L122.585 50.948H128.878L129.552 37.8008C129.721 34.0364 130.002 29.2608 130.114 25.1592H130.226C130.844 29.2608 131.855 33.9804 132.586 37.0142L135.732 50.33H140.901L144.216 36.7899C144.946 33.8684 145.958 29.2048 146.632 25.1592H146.744C146.688 29.2048 146.913 34.0928 147.138 37.6885L147.812 50.948ZM105 36.5649L106.405 28.6429C106.798 26.4514 107.359 22.5747 107.753 20.0469H107.921C108.258 22.5191 108.764 26.3391 109.157 28.6429L110.394 36.5649H105ZM111.068 42.2957L112.697 50.948H119.832L112.472 13.0799H103.651L95.4485 50.948H102.584L104.269 42.2957H111.068Z" fill="#211D1D"></path>
  <path d="M323.443 49.6448V34.8684L331.927 11.7767H324.285L322.038 20.6536C321.364 23.3507 320.746 26.1038 320.296 28.8565H320.184C319.622 26.0474 318.892 23.238 318.162 20.8222L315.633 11.7767H307.758L316.083 35.149V49.6448H323.443ZM292.823 17.5638C293.216 17.3952 293.946 17.3388 294.621 17.3388C297.879 17.4515 299.172 19.6986 299.172 22.9574C299.172 26.2721 297.373 28.8565 294.171 28.8565H292.823V17.5638ZM285.463 49.6448H292.823V34.5311H293.946C296.362 34.5311 297.542 35.8796 298.216 40.5432C298.778 44.7569 299.621 48.5769 300.126 49.6448H307.824C307.15 48.2399 306.138 43.577 305.408 39.3633C304.678 35.2617 303.385 32.9019 300.801 31.8343V31.7223C304.621 29.9804 306.644 26.3281 306.644 22.2831C306.644 19.0244 305.914 16.4959 303.61 14.4174C301.194 12.2263 297.542 11.608 293.497 11.608C290.688 11.608 287.766 11.8887 285.463 12.3386V49.6448ZM267.483 49.6448H274.843V18.5751H281.586V11.7767H260.798V18.5751H267.483V49.6448ZM248.718 36.7789H259.899V31.4973H248.718V36.7789ZM227.761 49.6448V41.1612C227.761 33.5201 227.481 27.6766 227.256 23.856H227.368C228.267 27.2273 229.953 32.0589 231.245 35.2617L237.032 49.6448H243.774V11.7767H237.313V20.148C237.313 27.115 237.819 33.6888 238.043 37.6775H237.931C236.864 34.4187 235.066 29.5308 233.886 26.6094L228.043 11.7767H221.3V49.6448H227.761ZM202.31 35.2617L203.715 27.3397C204.108 25.1482 204.67 21.2715 205.063 18.7437H205.232C205.569 21.2158 206.075 25.0359 206.468 27.3397L207.704 35.2617H202.31ZM208.378 40.9925L210.007 49.6448H217.143L209.782 11.7767H200.962L192.759 49.6448H199.895L201.58 40.9925H208.378ZM183.601 49.6448H190.174L187.871 11.7767H180.117L177.084 25.4858C176.129 30.2611 175.286 34.5311 174.724 38.7454H174.555C173.881 34.4747 172.926 30.2611 171.915 25.4858L168.881 11.7767H161.071L158.374 49.6448H164.667L165.341 36.4976C165.51 32.7332 165.791 27.9579 165.903 23.856H166.016C166.633 27.9579 167.644 32.6772 168.375 35.711L171.521 49.0268H176.691L180.005 35.4866C180.736 32.5652 181.747 27.9016 182.421 23.856H182.534C182.477 27.9016 182.702 32.7895 182.927 36.3852L183.601 49.6448ZM147.812 49.6448H154.385L152.082 11.7767H144.328L141.295 25.4858C140.339 30.2611 139.497 34.5311 138.935 38.7454H138.766C138.092 34.4747 137.137 30.2611 136.125 25.4858L133.092 11.7767H125.282L122.585 49.6448H128.878L129.552 36.4976C129.721 32.7332 130.002 27.9579 130.114 23.856H130.226C130.844 27.9579 131.855 32.6772 132.586 35.711L135.732 49.0268H140.901L144.216 35.4866C144.946 32.5652 145.958 27.9016 146.632 23.856H146.744C146.688 27.9016 146.913 32.7895 147.137 36.3852L147.812 49.6448ZM104.999 35.2617L106.404 27.3397C106.797 25.1482 107.359 21.2715 107.753 18.7437H107.921C108.258 21.2158 108.764 25.0359 109.157 27.3397L110.394 35.2617H104.999ZM111.068 40.9925L112.697 49.6448H119.832L112.472 11.7767H103.651L95.4485 49.6448H102.584L104.269 40.9925H111.068Z" fill="white"></path>
  <path d="M102.163 96.7013H102.834C103.436 96.7013 103.852 96.5503 104.08 96.2491C104.309 95.9482 104.423 95.4964 104.423 94.8939C104.423 94.4272 104.369 94.0557 104.262 93.7789C104.155 93.5017 103.983 93.2976 103.745 93.1663C103.507 93.0356 103.188 92.9698 102.79 92.9698H102.163V96.7013ZM102.163 91.3517H102.761C103.179 91.3517 103.494 91.2913 103.708 91.1698C103.922 91.0486 104.07 90.8635 104.153 90.616C104.235 90.368 104.277 90.0642 104.277 89.7048C104.277 89.3453 104.216 89.0561 104.095 88.8378C103.973 88.6188 103.788 88.4613 103.541 88.3641C103.293 88.2667 102.979 88.218 102.601 88.218H102.163V91.3517ZM99.7583 98.3918V86.5856H102.746C103.262 86.5856 103.737 86.6293 104.175 86.7169C104.612 86.8042 104.998 86.9599 105.333 87.183C105.669 87.4067 105.926 87.7152 106.106 88.1088C106.286 88.5024 106.376 89.015 106.376 89.6466C106.376 90.1228 106.308 90.5284 106.172 90.8635C106.036 91.1989 105.841 91.4637 105.589 91.658C105.336 91.8526 105.025 91.9839 104.656 92.0513C105.113 92.1193 105.496 92.275 105.807 92.518C106.118 92.761 106.352 93.0815 106.507 93.4799C106.662 93.8786 106.74 94.3592 106.74 94.923C106.74 95.516 106.665 96.0308 106.514 96.4681C106.364 96.9053 106.142 97.2648 105.851 97.5467C105.559 97.8286 105.2 98.04 104.772 98.1808C104.345 98.3216 103.849 98.3918 103.286 98.3918H99.7583Z" fill="#100F0D"></path>
  <path d="M108.154 86.5856H110.544V98.3918H108.154V86.5856Z" fill="#100F0D"></path>
  <path d="M112.351 98.3918V86.5856H114.756V96.7592H117.525V98.3918H112.351Z" fill="#100F0D"></path>
  <path d="M118.663 98.3918V86.5856H121.068V96.7592H123.837V98.3918H118.663Z" fill="#100F0D"></path>
  <path d="M124.974 98.3918V86.5856H130.119V88.2471H127.379V91.3808H129.493V93.0571H127.379V96.7592H130.148V98.3918H124.974Z" fill="#100F0D"></path>
  <path d="M132.465 98.3918V88.3784H130.644V86.5856H136.678V88.3784H134.885V98.3918H132.465Z" fill="#100F0D"></path>
  <path d="M140.803 98.5522C140.074 98.5522 139.467 98.4187 138.981 98.1514C138.495 97.8843 138.128 97.4809 137.881 96.9417C137.633 96.4022 137.489 95.715 137.451 94.879L139.52 94.5294C139.54 95.0154 139.591 95.421 139.673 95.7463C139.756 96.0719 139.882 96.3146 140.052 96.475C140.222 96.6354 140.433 96.7155 140.686 96.7155C140.997 96.7155 141.208 96.6187 141.32 96.4241C141.432 96.2298 141.488 96.0064 141.488 95.7536C141.488 95.2581 141.369 94.8426 141.131 94.5072C140.893 94.1718 140.579 93.8349 140.19 93.4944L138.966 92.4306C138.529 92.0614 138.172 91.6431 137.895 91.1767C137.618 90.7103 137.48 90.137 137.48 89.457C137.48 88.4856 137.764 87.7395 138.332 87.2193C138.901 86.6998 139.68 86.4397 140.672 86.4397C141.264 86.4397 141.75 86.5368 142.129 86.7314C142.508 86.9257 142.802 87.1858 143.011 87.5111C143.22 87.8367 143.366 88.1914 143.448 88.5752C143.531 88.9593 143.582 89.3406 143.601 89.7193L141.546 90.0253C141.527 89.6661 141.495 89.3501 141.451 89.0779C141.408 88.8061 141.32 88.5922 141.189 88.4369C141.058 88.2812 140.861 88.2034 140.599 88.2034C140.317 88.2034 140.108 88.3078 139.972 88.5166C139.836 88.7261 139.768 88.9564 139.768 89.2093C139.768 89.6269 139.863 89.9699 140.052 90.2366C140.242 90.5043 140.502 90.7834 140.832 91.0748L142.027 92.124C142.523 92.5521 142.948 93.0404 143.303 93.589C143.657 94.1383 143.835 94.8161 143.835 95.6226C143.835 96.1763 143.708 96.6769 143.456 97.1236C143.203 97.5711 142.851 97.9207 142.399 98.1729C141.947 98.4257 141.415 98.5522 140.803 98.5522Z" fill="#100F0D"></path>
  <path d="M152.449 86.5856H154.3V100.913H152.449V86.5856Z" fill="#100F0D"></path>
  <path d="M164.532 98.3918V88.3784H162.71V86.5856H168.745V88.3784H166.951V98.3918H164.532Z" fill="#100F0D"></path>
  <path d="M169.677 98.3918L169.881 86.5856H172.432L173.89 94.0336L175.449 86.5856H177.912L178.116 98.3918H176.367L176.178 90.3898L174.677 98.3918H173.175L171.601 90.3316L171.441 98.3918H169.677Z" fill="#100F0D"></path>
  <path d="M180.871 98.3918V88.3784H179.049V86.5856H185.083V88.3784H183.29V98.3918H180.871Z" fill="#100F0D"></path>
  <path d="M192.196 96.7013H192.866C193.469 96.7013 193.884 96.5503 194.113 96.2491C194.341 95.9482 194.455 95.4964 194.455 94.8939C194.455 94.4272 194.402 94.0557 194.295 93.7789C194.188 93.5017 194.015 93.2976 193.777 93.1663C193.539 93.0356 193.221 92.9698 192.823 92.9698H192.196V96.7013ZM192.196 91.3517H192.794C193.211 91.3517 193.527 91.2913 193.741 91.1698C193.954 91.0486 194.103 90.8635 194.185 90.616C194.268 90.368 194.309 90.0642 194.309 89.7048C194.309 89.3453 194.248 89.0561 194.127 88.8378C194.006 88.6188 193.821 88.4613 193.573 88.3641C193.326 88.2667 193.012 88.218 192.633 88.218H192.196V91.3517ZM189.791 98.3918V86.5856H192.779C193.294 86.5856 193.77 86.6293 194.207 86.7169C194.645 86.8042 195.031 86.9599 195.366 87.183C195.701 87.4067 195.959 87.7152 196.138 88.1088C196.318 88.5024 196.408 89.015 196.408 89.6466C196.408 90.1228 196.34 90.5284 196.204 90.8635C196.068 91.1989 195.873 91.4637 195.621 91.658C195.368 91.8526 195.057 91.9839 194.688 92.0513C195.145 92.1193 195.529 92.275 195.84 92.518C196.151 92.761 196.384 93.0815 196.539 93.4799C196.695 93.8786 196.772 94.3592 196.772 94.923C196.772 95.516 196.697 96.0308 196.547 96.4681C196.396 96.9053 196.175 97.2648 195.884 97.5467C195.592 97.8286 195.232 98.04 194.805 98.1808C194.377 98.3216 193.882 98.3918 193.318 98.3918H189.791Z" fill="#100F0D"></path>
  <path d="M200.475 94.3253H201.889L201.174 89.5589L200.475 94.3253ZM197.545 98.3918L199.833 86.5859H202.501L204.775 98.3918H202.545L202.122 95.7976H200.256L199.804 98.3918H197.545Z" fill="#100F0D"></path>
  <path d="M208.375 91.614H209.074C209.463 91.614 209.769 91.551 209.993 91.4248C210.216 91.2982 210.374 91.1065 210.466 90.8486C210.559 90.5914 210.605 90.273 210.605 89.894C210.605 89.3501 210.505 88.9349 210.306 88.648C210.106 88.3616 209.735 88.218 209.191 88.218H208.375V91.614ZM205.97 98.3918V86.5856H209.031C209.827 86.5856 210.51 86.6751 211.079 86.8552C211.647 87.0349 212.084 87.3532 212.391 87.8098C212.697 88.2667 212.849 88.8982 212.849 89.7045C212.849 90.1905 212.808 90.6208 212.726 90.9948C212.643 91.3688 212.497 91.6944 212.288 91.9712C212.079 92.2481 211.786 92.4693 211.406 92.6344L213.039 98.3918H210.576L209.22 93.0426H208.375V98.3918H205.97Z" fill="#100F0D"></path>
  <path d="M217.47 98.5522C216.741 98.5522 216.134 98.4187 215.648 98.1514C215.162 97.8843 214.795 97.4809 214.548 96.9417C214.3 96.4022 214.156 95.715 214.118 94.879L216.187 94.5294C216.207 95.0154 216.258 95.421 216.34 95.7463C216.423 96.0719 216.549 96.3146 216.719 96.475C216.889 96.6354 217.1 96.7155 217.353 96.7155C217.664 96.7155 217.875 96.6187 217.987 96.4241C218.099 96.2298 218.155 96.0064 218.155 95.7536C218.155 95.2581 218.036 94.8426 217.798 94.5072C217.56 94.1718 217.246 93.8349 216.857 93.4944L215.633 92.4306C215.196 92.0614 214.839 91.6431 214.562 91.1767C214.285 90.7103 214.147 90.137 214.147 89.457C214.147 88.4856 214.431 87.7395 214.999 87.2193C215.568 86.6998 216.347 86.4397 217.339 86.4397C217.931 86.4397 218.417 86.5368 218.796 86.7314C219.175 86.9257 219.469 87.1858 219.678 87.5111C219.887 87.8367 220.033 88.1914 220.115 88.5752C220.198 88.9593 220.249 89.3406 220.268 89.7193L218.213 90.0253C218.194 89.6661 218.162 89.3501 218.119 89.0779C218.075 88.8061 217.987 88.5922 217.856 88.4369C217.725 88.2812 217.528 88.2034 217.266 88.2034C216.984 88.2034 216.775 88.3078 216.639 88.5166C216.503 88.7261 216.435 88.9564 216.435 89.2093C216.435 89.6269 216.53 89.9699 216.719 90.2366C216.909 90.5043 217.169 90.7834 217.499 91.0748L218.694 92.124C219.19 92.5521 219.615 93.0404 219.97 93.589C220.324 94.1383 220.502 94.8161 220.502 95.6226C220.502 96.1763 220.375 96.6769 220.123 97.1236C219.87 97.5711 219.518 97.9207 219.066 98.1729C218.614 98.4257 218.082 98.5522 217.47 98.5522Z" fill="#100F0D"></path>
  <path d="M229.116 86.5856H230.967V100.913H229.116V86.5856Z" fill="#100F0D"></path>
  <path d="M242.496 91.5849H243.342C243.692 91.5849 243.961 91.5292 244.151 91.4172C244.34 91.3055 244.469 91.1283 244.537 90.8856C244.605 90.6426 244.639 90.3316 244.639 89.9525C244.639 89.5931 244.612 89.2919 244.559 89.0489C244.506 88.8062 244.386 88.6163 244.202 88.4806C244.017 88.3445 243.725 88.2765 243.327 88.2765H242.496V91.5849ZM240.091 98.3918V86.5856H243.837C244.547 86.5856 245.125 86.7194 245.572 86.9865C246.019 87.2538 246.352 87.6399 246.57 88.1452C246.789 88.6505 246.898 89.2624 246.898 89.9819C246.898 90.8271 246.755 91.4881 246.468 91.9643C246.182 92.4401 245.791 92.7778 245.295 92.9771C244.8 93.1764 244.231 93.2758 243.59 93.2758H242.496V98.3918H240.091Z" fill="#100F0D"></path>
  <path d="M248.166 86.5856H250.556V98.3918H248.166V86.5856Z" fill="#100F0D"></path>
  <path d="M254.769 91.5849H255.615C255.964 91.5849 256.234 91.5292 256.423 91.4172C256.613 91.3055 256.742 91.1283 256.81 90.8856C256.877 90.6426 256.912 90.3316 256.912 89.9525C256.912 89.5931 256.885 89.2919 256.831 89.0489C256.778 88.8062 256.659 88.6163 256.475 88.4806C256.29 88.3445 255.998 88.2765 255.6 88.2765H254.769V91.5849ZM252.364 98.3918V86.5856H256.11C256.819 86.5856 257.397 86.7194 257.845 86.9865C258.292 87.2538 258.625 87.6399 258.843 88.1452C259.062 88.6505 259.171 89.2624 259.171 89.9819C259.171 90.8271 259.027 91.4881 258.741 91.9643C258.454 92.4401 258.063 92.7778 257.567 92.9771C257.072 93.1764 256.504 93.2758 255.862 93.2758H254.769V98.3918H252.364Z" fill="#100F0D"></path>
  <path d="M260.409 98.3918V86.5856H265.554V88.2471H262.814V91.3808H264.928V93.0571H262.814V96.7592H265.583V98.3918H260.409Z" fill="#100F0D"></path>
  <path d="M269.854 98.5522C269.125 98.5522 268.518 98.4187 268.032 98.1514C267.546 97.8843 267.179 97.4809 266.932 96.9417C266.684 96.4022 266.541 95.715 266.502 94.879L268.571 94.5294C268.591 95.0154 268.642 95.421 268.724 95.7463C268.807 96.0719 268.933 96.3146 269.103 96.475C269.273 96.6354 269.485 96.7155 269.738 96.7155C270.048 96.7155 270.26 96.6187 270.372 96.4241C270.483 96.2298 270.539 96.0064 270.539 95.7536C270.539 95.2581 270.42 94.8426 270.182 94.5072C269.944 94.1718 269.631 93.8349 269.242 93.4944L268.018 92.4306C267.58 92.0614 267.223 91.6431 266.946 91.1767C266.669 90.7103 266.531 90.137 266.531 89.457C266.531 88.4856 266.815 87.7395 267.383 87.2193C267.952 86.6998 268.732 86.4397 269.723 86.4397C270.316 86.4397 270.802 86.5368 271.18 86.7314C271.559 86.9257 271.853 87.1858 272.062 87.5111C272.271 87.8367 272.417 88.1914 272.5 88.5752C272.582 88.9593 272.633 89.3406 272.653 89.7193L270.598 90.0253C270.578 89.6661 270.546 89.3501 270.503 89.0779C270.459 88.8061 270.372 88.5922 270.24 88.4369C270.109 88.2812 269.912 88.2034 269.65 88.2034C269.368 88.2034 269.159 88.3078 269.023 88.5166C268.887 88.7261 268.819 88.9564 268.819 89.2093C268.819 89.6269 268.914 89.9699 269.103 90.2366C269.293 90.5043 269.553 90.7834 269.883 91.0748L271.079 92.124C271.574 92.5521 271.999 93.0404 272.354 93.589C272.708 94.1383 272.886 94.8161 272.886 95.6226C272.886 96.1763 272.76 96.6769 272.507 97.1236C272.254 97.5711 271.902 97.9207 271.45 98.1729C270.998 98.4257 270.466 98.5522 269.854 98.5522Z" fill="#100F0D"></path>
  <path d="M281.5 86.5856H283.351V100.913H281.5V86.5856Z" fill="#100F0D"></path>
  <path d="M293.583 98.3918V88.3784H291.761V86.5856H297.796V88.3784H296.003V98.3918H293.583Z" fill="#100F0D"></path>
  <path d="M302.182 98.5522C301.288 98.5522 300.594 98.3991 300.098 98.0931C299.603 97.7868 299.255 97.3448 299.056 96.7667C298.857 96.1887 298.757 95.4865 298.757 94.6604V86.5856H301.133V94.9958C301.133 95.2875 301.155 95.5739 301.199 95.8558C301.242 96.1374 301.34 96.3658 301.49 96.5408C301.641 96.7155 301.872 96.8031 302.182 96.8031C302.503 96.8031 302.739 96.7155 302.889 96.5408C303.04 96.3658 303.135 96.1374 303.174 95.8558C303.213 95.5739 303.232 95.2875 303.232 94.9958V86.5856H305.608V94.6604C305.608 95.4865 305.508 96.1887 305.309 96.7667C305.11 97.3448 304.762 97.7868 304.267 98.0931C303.771 98.3991 303.077 98.5522 302.182 98.5522Z" fill="#100F0D"></path>
  <path d="M309.689 96.7013H310.359C310.962 96.7013 311.377 96.5503 311.606 96.2491C311.834 95.9482 311.948 95.4964 311.948 94.8939C311.948 94.4272 311.895 94.0557 311.788 93.7789C311.681 93.5017 311.508 93.2976 311.27 93.1663C311.032 93.0356 310.714 92.9698 310.316 92.9698H309.689V96.7013ZM309.689 91.3517H310.286C310.704 91.3517 311.02 91.2913 311.234 91.1698C311.447 91.0486 311.596 90.8635 311.678 90.616C311.761 90.368 311.802 90.0642 311.802 89.7048C311.802 89.3453 311.742 89.0561 311.62 88.8378C311.499 88.6188 311.314 88.4613 311.066 88.3641C310.819 88.2667 310.505 88.218 310.126 88.218H309.689V91.3517ZM307.284 98.3918V86.5856H310.272C310.787 86.5856 311.263 86.6293 311.7 86.7169C312.137 86.8042 312.523 86.9599 312.859 87.183C313.194 87.4067 313.452 87.7152 313.631 88.1088C313.811 88.5024 313.901 89.015 313.901 89.6466C313.901 90.1228 313.833 90.5284 313.697 90.8635C313.561 91.1989 313.366 91.4637 313.114 91.658C312.861 91.8526 312.55 91.9839 312.181 92.0513C312.638 92.1193 313.021 92.275 313.333 92.518C313.644 92.761 313.877 93.0815 314.032 93.4799C314.188 93.8786 314.265 94.3592 314.265 94.923C314.265 95.516 314.19 96.0308 314.04 96.4681C313.889 96.9053 313.668 97.2648 313.377 97.5467C313.085 97.8286 312.725 98.04 312.298 98.1808C311.87 98.3216 311.375 98.3918 310.811 98.3918H307.284Z" fill="#100F0D"></path>
  <path d="M315.65 98.3918V86.5856H320.796V88.2471H318.055V91.3808H320.169V93.0571H318.055V96.7592H320.824V98.3918H315.65Z" fill="#100F0D"></path>
  <path d="M325.095 98.5522C324.366 98.5522 323.759 98.4187 323.273 98.1514C322.787 97.8843 322.421 97.4809 322.173 96.9417C321.925 96.4022 321.782 95.715 321.743 94.879L323.812 94.5294C323.832 95.0154 323.883 95.421 323.966 95.7463C324.048 96.0719 324.174 96.3146 324.345 96.475C324.514 96.6354 324.726 96.7155 324.979 96.7155C325.289 96.7155 325.501 96.6187 325.613 96.4241C325.724 96.2298 325.78 96.0064 325.78 95.7536C325.78 95.2581 325.661 94.8426 325.423 94.5072C325.185 94.1718 324.872 93.8349 324.483 93.4944L323.259 92.4306C322.821 92.0614 322.464 91.6431 322.187 91.1767C321.91 90.7103 321.772 90.137 321.772 89.457C321.772 88.4856 322.056 87.7395 322.625 87.2193C323.193 86.6998 323.973 86.4397 324.964 86.4397C325.557 86.4397 326.043 86.5368 326.422 86.7314C326.801 86.9257 327.095 87.1858 327.303 87.5111C327.512 87.8367 327.658 88.1914 327.741 88.5752C327.823 88.9593 327.874 89.3406 327.894 89.7193L325.839 90.0253C325.819 89.6661 325.787 89.3501 325.744 89.0779C325.7 88.8061 325.613 88.5922 325.481 88.4369C325.35 88.2812 325.153 88.2034 324.891 88.2034C324.609 88.2034 324.401 88.3078 324.265 88.5166C324.128 88.7261 324.06 88.9564 324.06 89.2093C324.06 89.6269 324.155 89.9699 324.345 90.2366C324.534 90.5043 324.794 90.7834 325.124 91.0748L326.32 92.124C326.815 92.5521 327.24 93.0404 327.595 93.589C327.949 94.1383 328.127 94.8161 328.127 95.6226C328.127 96.1763 328.001 96.6769 327.748 97.1236C327.495 97.5711 327.143 97.9207 326.691 98.1729C326.24 98.4257 325.708 98.5522 325.095 98.5522Z" fill="#100F0D"></path>
  <path d="M185.942 74.1123C185.072 74.1123 184.383 73.9294 183.874 73.5636C183.365 73.1976 183.002 72.6783 182.784 72.0047C182.567 71.3314 182.458 70.5492 182.458 69.6585V65.348C182.458 64.4254 182.569 63.6299 182.792 62.962C183.015 62.2937 183.404 61.7795 183.961 61.4191C184.518 61.0587 185.274 60.8784 186.228 60.8784C187.15 60.8784 187.879 61.0322 188.415 61.3397C188.95 61.6473 189.335 62.082 189.568 62.644C189.801 63.2059 189.918 63.8742 189.918 64.6481V65.3955H187.357V64.489C187.357 64.1498 187.336 63.8501 187.294 63.5904C187.251 63.3306 187.153 63.1265 186.999 62.9781C186.845 62.8297 186.599 62.755 186.26 62.755C185.91 62.755 185.655 62.8455 185.496 63.0256C185.337 63.2059 185.236 63.4369 185.194 63.7176C185.152 63.9985 185.13 64.2979 185.13 64.6162V70.3264C185.13 70.6872 185.162 71.0105 185.226 71.2969C185.29 71.5832 185.409 71.806 185.584 71.9648C185.759 72.124 186.01 72.2034 186.339 72.2034C186.668 72.2034 186.922 72.1186 187.103 71.949C187.283 71.7794 187.407 71.5487 187.477 71.2573C187.545 70.9656 187.58 70.6343 187.58 70.2628V68.895H186.324V67.3044H189.95V73.9212H188.232L188.073 72.7603C187.903 73.1526 187.649 73.476 187.309 73.7304C186.97 73.9851 186.514 74.1123 185.942 74.1123Z" fill="#100F0D"></path>
  <path d="M199.939 66.5247H200.702C201.126 66.5247 201.46 66.4557 201.704 66.3181C201.948 66.1801 202.12 65.9707 202.221 65.6897C202.322 65.409 202.372 65.0613 202.372 64.6478C202.372 64.0539 202.264 63.6008 202.046 63.2881C201.829 62.9752 201.423 62.8186 200.829 62.8186H199.939V66.5247ZM197.314 73.9211V61.0372H200.655C201.524 61.0372 202.269 61.1353 202.889 61.3314C203.51 61.5276 203.987 61.875 204.321 62.3734C204.655 62.8717 204.822 63.5612 204.822 64.4411C204.822 64.9714 204.777 65.4407 204.687 65.8485C204.597 66.257 204.438 66.612 204.209 66.9142C203.981 67.2167 203.661 67.4578 203.247 67.6385L205.029 73.9211H202.341L200.861 68.0837H199.939V73.9211H197.314Z" fill="#100F0D"></path>
  <path d="M215.638 72.2032C215.977 72.2032 216.227 72.1266 216.386 71.9725C216.545 71.8191 216.651 71.6124 216.704 71.3523C216.757 71.0926 216.783 70.8141 216.783 70.5173V64.4251C216.783 64.1284 216.757 63.8524 216.704 63.5981C216.651 63.3437 216.545 63.1396 216.386 62.9858C216.227 62.8323 215.977 62.7551 215.638 62.7551C215.32 62.7551 215.081 62.8323 214.922 62.9858C214.763 63.1396 214.657 63.3437 214.604 63.5981C214.551 63.8524 214.524 64.1284 214.524 64.4251V70.5173C214.524 70.8141 214.549 71.0926 214.596 71.3523C214.644 71.6124 214.747 71.8191 214.906 71.9725C215.065 72.1266 215.309 72.2032 215.638 72.2032ZM215.638 74.0959C214.694 74.0959 213.947 73.9264 213.395 73.5872C212.844 73.248 212.449 72.7629 212.21 72.1317C211.972 71.5007 211.852 70.7455 211.852 69.8649V65.0615C211.852 64.1812 211.972 63.4288 212.21 62.8029C212.449 62.177 212.844 61.7002 213.395 61.3715C213.947 61.0427 214.694 60.8782 215.638 60.8782C216.592 60.8782 217.348 61.0449 217.905 61.3791C218.461 61.7132 218.859 62.1903 219.098 62.8105C219.336 63.431 219.455 64.1812 219.455 65.0615V69.8649C219.455 70.7455 219.336 71.5007 219.098 72.1317C218.859 72.7629 218.461 73.248 217.905 73.5872C217.348 73.9264 216.592 74.0959 215.638 74.0959Z" fill="#100F0D"></path>
  <path d="M230.399 74.0962C229.423 74.0962 228.666 73.9294 228.125 73.5953C227.584 73.2612 227.204 72.779 226.987 72.1477C226.77 71.5171 226.661 70.7508 226.661 69.8493V61.0376H229.254V70.2151C229.254 70.5331 229.278 70.8463 229.325 71.1536C229.373 71.4614 229.479 71.7104 229.644 71.9012C229.808 72.092 230.06 72.1876 230.399 72.1876C230.749 72.1876 231.006 72.092 231.171 71.9012C231.335 71.7104 231.438 71.4614 231.481 71.1536C231.523 70.8463 231.544 70.5331 231.544 70.2151V61.0376H234.137V69.8493C234.137 70.7508 234.028 71.5171 233.811 72.1477C233.594 72.779 233.214 73.2612 232.674 73.5953C232.133 73.9294 231.375 74.0962 230.399 74.0962Z" fill="#100F0D"></path>
  <path d="M244.158 66.493H245.08C245.462 66.493 245.756 66.4322 245.963 66.3101C246.17 66.1883 246.31 65.995 246.384 65.7295C246.458 65.4647 246.496 65.1251 246.496 64.7116C246.496 64.3196 246.466 63.9908 246.408 63.7253C246.35 63.4605 246.22 63.2539 246.019 63.1052C245.817 62.9568 245.499 62.8824 245.064 62.8824H244.158V66.493ZM241.533 73.9214V61.0374H245.621C246.395 61.0374 247.026 61.1833 247.513 61.4747C248.001 61.7664 248.365 62.1882 248.603 62.7394C248.842 63.2909 248.961 63.9589 248.961 64.7436C248.961 65.6659 248.805 66.3873 248.492 66.9069C248.179 67.4264 247.752 67.7947 247.211 68.0121C246.671 68.2295 246.05 68.3383 245.351 68.3383H244.158V73.9214H241.533Z" fill="#100F0D"></path>
</svg>
